<svg width="81" height="88" viewBox="0 0 81 88" fill="none" xmlns="http://www.w3.org/2000/svg">
<g clip-path="url(#clip0_204_5)">
<path d="M8.56445 26.8223C7.7832 26.8223 7.39258 26.2526 7.39258 25.1133C7.39258 23.974 7.45768 22.9323 7.58789 21.9883C7.75065 21.0443 7.94596 20.1491 8.17383 19.3027C8.40169 18.4564 8.66211 17.6263 8.95508 16.8125L9.88281 14.2734C10.6641 12.0599 11.2012 10.0742 11.4941 8.31641C11.7871 6.55859 12.0964 5.51693 12.4219 5.19141C12.7474 4.83333 13.1055 4.6543 13.4961 4.6543C14.1471 4.6543 14.9935 5.33789 16.0352 6.70508C16.556 7.32357 17.321 7.66536 18.3301 7.73047C19.3717 7.76302 20.3646 7.7793 21.3086 7.7793H70.7227C72.7734 7.7793 74.3197 7.42122 75.3613 6.70508C76.403 5.98893 77.1191 5.4681 77.5098 5.14258C77.9004 4.81706 78.2259 4.6543 78.4863 4.6543C78.7467 4.6543 78.9746 4.67057 79.1699 4.70312C79.3978 4.73568 79.6094 4.81706 79.8047 4.94727C80.3581 5.27279 80.3906 6.00521 79.9023 7.14453C79.4466 8.2513 78.9258 9.68359 78.3398 11.4414C77.7539 13.1667 77.2168 14.8594 76.7285 16.5195C75.8496 19.5469 75.2311 21.8906 74.873 23.5508C74.4173 25.8294 73.7826 26.9688 72.9688 26.9688C72.1224 26.9688 71.6016 26.4642 71.4062 25.4551C71.2435 24.4134 71.0482 23.502 70.8203 22.7207C70.5924 21.9069 70.2995 21.1745 69.9414 20.5234C67.7279 16.6172 60.8594 14.6641 49.3359 14.6641V67.5938C49.3359 71.8906 49.5964 74.7552 50.1172 76.1875C50.6706 77.6198 51.3053 78.6126 52.0215 79.166C52.7376 79.6868 53.5026 79.9473 54.3164 79.9473C55.1628 79.9473 55.7812 79.931 56.1719 79.8984C57.1159 79.7682 57.7995 79.6706 58.2227 79.6055C58.6458 79.5404 59.1016 79.5078 59.5898 79.5078C60.1107 79.5078 60.5339 79.7682 60.8594 80.2891C61.1849 80.7773 61.3477 81.2168 61.3477 81.6074C61.3477 81.9655 61.25 82.3236 61.0547 82.6816C60.8594 83.0397 60.5501 83.3652 60.127 83.6582C59.0853 84.3743 57.8158 84.7324 56.3184 84.7324C54.8535 84.7324 53.5677 84.6836 52.4609 84.5859C51.3867 84.5208 50.3776 84.4557 49.4336 84.3906L46.6016 84.0977C45.6901 84.0326 44.6973 84 43.623 84C42.5488 84 41.556 84.0326 40.6445 84.0977L37.8125 84.3906C34.9805 84.6185 32.8971 84.7324 31.5625 84.7324C30.2604 84.7324 29.2839 84.6185 28.6328 84.3906C28.0143 84.1953 27.4935 83.9512 27.0703 83.6582C26.2565 83.0723 25.8496 82.4863 25.8496 81.9004C25.8496 81.3145 26.0124 80.7773 26.3379 80.2891C26.6634 79.7682 27.0866 79.5078 27.6074 79.5078C28.1283 79.5078 28.5514 79.5404 28.877 79.6055C29.235 79.638 29.5768 79.6706 29.9023 79.7031C30.944 79.8659 31.9043 79.9473 32.7832 79.9473C33.6621 79.9473 34.4596 79.6868 35.1758 79.166C35.8919 78.6452 36.4453 77.8639 36.8359 76.8223C37.5195 74.9993 37.8613 71.9232 37.8613 67.5938V14.6152C31.416 14.6152 26.7773 15.071 23.9453 15.9824C23.5221 16.1126 22.7083 16.3242 21.5039 16.6172C20.2995 16.9102 18.9323 17.6426 17.4023 18.8145C15.8724 19.9538 14.5215 21.1257 13.3496 22.3301C12.1777 23.502 11.1849 24.5436 10.3711 25.4551C9.58984 26.3665 8.98763 26.8223 8.56445 26.8223Z" fill="black"/>
<path d="M3.56445 23.8223C2.7832 23.8223 2.39258 23.2526 2.39258 22.1133C2.39258 20.974 2.45768 19.9323 2.58789 18.9883C2.75065 18.0443 2.94596 17.1491 3.17383 16.3027C3.40169 15.4564 3.66211 14.6263 3.95508 13.8125L4.88281 11.2734C5.66406 9.0599 6.20117 7.07422 6.49414 5.31641C6.78711 3.55859 7.09635 2.51693 7.42188 2.19141C7.7474 1.83333 8.10547 1.6543 8.49609 1.6543C9.14714 1.6543 9.99349 2.33789 11.0352 3.70508C11.556 4.32357 12.321 4.66536 13.3301 4.73047C14.3717 4.76302 15.3646 4.7793 16.3086 4.7793H65.7227C67.7734 4.7793 69.3197 4.42122 70.3613 3.70508C71.403 2.98893 72.1191 2.4681 72.5098 2.14258C72.9004 1.81706 73.2259 1.6543 73.4863 1.6543C73.7467 1.6543 73.9746 1.67057 74.1699 1.70312C74.3978 1.73568 74.6094 1.81706 74.8047 1.94727C75.3581 2.27279 75.3906 3.00521 74.9023 4.14453C74.4466 5.2513 73.9258 6.68359 73.3398 8.44141C72.7539 10.1667 72.2168 11.8594 71.7285 13.5195C70.8496 16.5469 70.2311 18.8906 69.873 20.5508C69.4173 22.8294 68.7826 23.9688 67.9688 23.9688C67.1224 23.9688 66.6016 23.4642 66.4062 22.4551C66.2435 21.4134 66.0482 20.502 65.8203 19.7207C65.5924 18.9069 65.2995 18.1745 64.9414 17.5234C62.7279 13.6172 55.8594 11.6641 44.3359 11.6641V64.5938C44.3359 68.8906 44.5964 71.7552 45.1172 73.1875C45.6706 74.6198 46.3053 75.6126 47.0215 76.166C47.7376 76.6868 48.5026 76.9473 49.3164 76.9473C50.1628 76.9473 50.7812 76.931 51.1719 76.8984C52.1159 76.7682 52.7995 76.6706 53.2227 76.6055C53.6458 76.5404 54.1016 76.5078 54.5898 76.5078C55.1107 76.5078 55.5339 76.7682 55.8594 77.2891C56.1849 77.7773 56.3477 78.2168 56.3477 78.6074C56.3477 78.9655 56.25 79.3236 56.0547 79.6816C55.8594 80.0397 55.5501 80.3652 55.127 80.6582C54.0853 81.3743 52.8158 81.7324 51.3184 81.7324C49.8535 81.7324 48.5677 81.6836 47.4609 81.5859C46.3867 81.5208 45.3776 81.4557 44.4336 81.3906L41.6016 81.0977C40.6901 81.0326 39.6973 81 38.623 81C37.5488 81 36.556 81.0326 35.6445 81.0977L32.8125 81.3906C29.9805 81.6185 27.8971 81.7324 26.5625 81.7324C25.2604 81.7324 24.2839 81.6185 23.6328 81.3906C23.0143 81.1953 22.4935 80.9512 22.0703 80.6582C21.2565 80.0723 20.8496 79.4863 20.8496 78.9004C20.8496 78.3145 21.0124 77.7773 21.3379 77.2891C21.6634 76.7682 22.0866 76.5078 22.6074 76.5078C23.1283 76.5078 23.5514 76.5404 23.877 76.6055C24.235 76.638 24.5768 76.6706 24.9023 76.7031C25.944 76.8659 26.9043 76.9473 27.7832 76.9473C28.6621 76.9473 29.4596 76.6868 30.1758 76.166C30.8919 75.6452 31.4453 74.8639 31.8359 73.8223C32.5195 71.9993 32.8613 68.9232 32.8613 64.5938V11.6152C26.416 11.6152 21.7773 12.071 18.9453 12.9824C18.5221 13.1126 17.7083 13.3242 16.5039 13.6172C15.2995 13.9102 13.9323 14.6426 12.4023 15.8145C10.8724 16.9538 9.52148 18.1257 8.34961 19.3301C7.17773 20.502 6.1849 21.5436 5.37109 22.4551C4.58984 23.3665 3.98763 23.8223 3.56445 23.8223Z" fill="#EAD03D"/>
</g>
<defs>
<clipPath id="clip0_204_5">
<rect width="81" height="88" fill="white"/>
</clipPath>
</defs>
</svg>
